<svg width="32" height="32" viewBox="0 0 32 32" fill="none" xmlns="http://www.w3.org/2000/svg">
  <rect width="32" height="32" rx="8" fill="#00EEFD"/>
  <path d="M16 8C20.4183 8 24 11.5817 24 16C24 19.7826 21.3478 22.9348 17.7391 23.7826L19.4142 25.4577C19.8047 25.8482 19.8047 26.4814 19.4142 26.8719C19.0237 27.2624 18.3905 27.2624 18 26.8719L15.5858 24.4577C15.7206 24.4858 15.8588 24.5 16 24.5C12.4183 24.5 9 20.9183 9 16.5C9 12.0817 12.5817 8.5 17 8.5H16Z" fill="white"/>
  <path d="M16 11C18.7614 11 21 13.2386 21 16C21 18.7614 18.7614 21 16 21C13.2386 21 11 18.7614 11 16C11 13.2386 13.2386 11 16 11Z" fill="#00EEFD"/>
  <path d="M18.5 18.5L21 21" stroke="white" stroke-width="2" stroke-linecap="round"/>
</svg>
